# xmcd
#
# Track frame offsets:
# 182
# 14135
# 32925
# 45695
# 56225
# 64420
# 81165
# 95290
# 107105
# 117795
# 128707
# 140427
# 163905
# 176440
# 188955
# 205747
# 219302
# 227992
# 240810
#
# Disc length: 3387 seconds
#
#
# Revision: 3
# Processed by: cddbd v1.5.1PL2 Copyright (c) Steve Scherf et al.
# Submitted via: FreeRIP 2.945 
#
DISCID=110d3913
DTITLE=Jonny Cash - 19 Geatest Hits - 19 Greatest Hits
DYEAR=1900
DGENRE=Country
TTITLE0=Don't Take Your Guns To Town
TTITLE1=Sunday Morning Coming Down
TTITLE2=Remember The Alamo
TTITLE3=Big River
TTITLE4=Five Feet High And Rising
TTITLE5=The Streets Of Laredo
TTITLE6=Orange Blossom Special
TTITLE7=Ring Of Fire
TTITLE8=Bonanza
TTITLE9=Give My Love To Rose
TTITLE10=I Walk The Line
TTITLE11=Danny Boy
TTITLE12=Jackson
TTITLE13=Folsom Prison Blues
TTITLE14=A Boy Named Sue
TTITLE15=If I Were A Carpenter
TTITLE16=Guess Things Happen That Way
TTITLE17=The One On The Right Is On The Left
TTITLE18=Don't Think Twice It's All Right
EXTD=
EXTT0=
EXTT1=
EXTT2=
EXTT3=
EXTT4=
EXTT5=
EXTT6=
EXTT7=
EXTT8=
EXTT9=
EXTT10=
EXTT11=
EXTT12=
EXTT13=
EXTT14=
EXTT15=
EXTT16=
EXTT17=
EXTT18=
PLAYORDER=
